<svg width="32" height="32" viewBox="0 0 32 32" fill="none" xmlns="http://www.w3.org/2000/svg">
  <defs>
    <!-- Main gradient -->
    <linearGradient id="gradient" x1="0%" y1="0%" x2="100%" y2="100%">
      <stop offset="0%" style="stop-color:#6965DB" />
      <stop offset="100%" style="stop-color:#4F46E5" />
    </linearGradient>

    <!-- Cross-hatch pattern for texture fill -->
    <pattern id="crosshatch" patternUnits="userSpaceOnUse" width="2" height="2">
      <path d="M0,2 l2,-2 M0,0 l2,2" stroke="#6965DB" stroke-width="0.15" opacity="0.3"/>
    </pattern>
  </defs>

  <!-- Simple X - two crossing diagonal lines with hand-drawn wobble -->
  <!-- First diagonal line (top-left to bottom-right) -->
  <path d="M 4,7 Q 4.2,7.2 8,12 Q 8.2,12.3 8.5,16 Q 8.3,16.3 9,20 Q 9.2,20.3 13,25 Q 13.2,25.2 13.5,25"
        stroke="url(#gradient)"
        stroke-width="2.5"
        fill="none"
        stroke-linecap="round"/>

  <!-- Second diagonal line (top-right to bottom-left) -->
  <path d="M 13,7 Q 12.8,7.2 9,12 Q 8.8,12.3 8.5,16 Q 8.7,16.3 8,20 Q 7.8,20.3 4,25 Q 3.8,25.2 3.5,25"
        stroke="url(#gradient)"
        stroke-width="2.5"
        fill="none"
        stroke-linecap="round"/>

  <!-- Cross-hatch texture fill for X area -->
  <g opacity="0.5">
    <rect x="3" y="6" width="11" height="20" fill="url(#crosshatch)"/>
  </g>

  <!-- Play triangle with hand-drawn edges -->
  <path d="M 18,10 Q 18.2,9.8 18.5,10 Q 18.8,10.2 22,13 Q 22.3,13.3 26,15.5 Q 26.3,15.8 26.5,16 Q 26.3,16.2 26,16.5 Q 25.8,16.8 22,19 Q 21.8,19.3 18.5,22 Q 18.2,22.2 18,22 Q 17.8,21.8 17.5,21.5 Q 17.3,21.2 17.5,16 Q 17.7,15.8 17.5,15.5 Q 17.3,15.2 17.5,10.5 Q 17.7,10.2 18,10 Z"
        fill="url(#gradient)"
        stroke="url(#gradient)"
        stroke-width="1.5"
        stroke-linecap="round"
        stroke-linejoin="round"/>

  <!-- Cross-hatch texture fill for play triangle -->
  <g opacity="0.5">
    <path d="M 18,10 L 26.5,16 L 18,22 Z" fill="url(#crosshatch)"/>
  </g>

  <!-- Additional hand-drawn texture lines -->
  <g opacity="0.2">
    <!-- Random scribbles on X -->
    <path d="M 5,9 Q 5.5,9.2 6,9" stroke="url(#gradient)" stroke-width="0.3" fill="none"/>
    <path d="M 7,14 Q 7.5,14.2 8,14" stroke="url(#gradient)" stroke-width="0.3" fill="none"/>
    <path d="M 9,19 Q 9.5,19.2 10,19" stroke="url(#gradient)" stroke-width="0.3" fill="none"/>

    <!-- Random scribbles on play -->
    <path d="M 20,12 Q 20.5,12.2 21,12" stroke="url(#gradient)" stroke-width="0.3" fill="none"/>
    <path d="M 22,16 Q 22.5,16.2 23,16" stroke="url(#gradient)" stroke-width="0.3" fill="none"/>
    <path d="M 21,19 Q 21.5,19.2 22,19" stroke="url(#gradient)" stroke-width="0.3" fill="none"/>
  </g>
</svg>
