<svg version="1.1" id="Layer_1" xmlns="http://www.w3.org/2000/svg" xmlns:xlink="http://www.w3.org/1999/xlink" x="0px" y="0px"
	 width="100%" viewBox="0 0 1024 1024" enable-background="new 0 0 1024 1024" xml:space="preserve">
<path fill="#6366f1" opacity="1.000000" stroke="none"
	d="
M188.225006,593.396118
	C189.073441,578.972534 190.070801,565.019836 190.598602,551.049438
	C192.158737,509.755402 193.313492,468.447510 192.555557,427.119049
	C192.088394,401.645050 191.342209,376.175140 190.541626,350.709076
	C190.369507,345.234833 189.891617,339.680206 188.699295,334.354095
	C187.571716,329.317078 184.403107,325.457031 187.398743,319.131744
	C190.043076,313.548248 185.120239,309.982025 178.517075,310.846527
	C174.562210,311.364319 170.554794,311.517914 166.565048,311.715057
	C164.800430,311.802307 163.078293,311.337280 162.988861,309.144226
	C162.903961,307.062531 164.444458,306.151398 166.223114,306.047699
	C170.545898,305.795685 174.887573,305.857758 179.208221,305.582520
	C182.798096,305.353821 185.281036,304.583618 185.083405,299.617676
	C184.915695,295.403717 185.961838,291.092285 185.215210,286.766205
	C184.976166,285.381226 185.374557,284.007507 187.055954,283.717865
	C188.939865,283.393311 189.806458,284.587646 190.159378,286.211945
	C190.665405,288.540833 190.106766,292.372589 193.231918,292.117554
	C196.688095,291.835480 195.298645,287.909058 195.663666,285.468109
	C196.082184,282.669403 196.347107,279.848114 196.728973,277.043457
	C196.986877,275.149139 197.472336,273.114136 199.919266,273.464844
	C202.364227,273.815216 202.346786,275.817871 201.914520,277.762512
	C201.001404,281.870361 201.105606,286.050415 201.200989,290.202820
	C201.275955,293.466827 202.977173,295.478058 206.500977,295.517822
	C218.134262,295.649139 229.817490,295.178040 241.386078,296.115784
	C252.324081,297.002380 262.984680,295.337128 273.735809,294.516907
	C290.818970,293.213562 307.864471,291.419006 324.927979,289.854706
	C363.936676,286.278564 403.061951,285.033539 442.196594,285.242096
	C472.670319,285.404449 503.236084,285.675415 533.580933,288.126923
	C569.536621,291.031769 605.485840,290.016785 641.427368,291.060486
	C658.066956,291.543701 674.719177,291.882904 691.322449,293.466064
	C703.473511,294.624695 715.632935,292.945160 727.765442,292.403778
	C748.820374,291.464172 769.640503,292.310883 790.458069,295.886475
	C799.980103,297.521973 809.621338,294.946228 819.072937,293.146271
	C821.654297,292.654663 822.671631,290.292419 822.618042,287.734253
	C822.562500,285.075317 822.261963,282.422150 822.177979,279.763000
	C822.129578,278.228058 822.340637,276.493011 824.200806,276.247375
	C826.400940,275.956909 826.972900,277.726044 827.125061,279.471893
	C827.298401,281.460693 827.254028,283.467560 827.342712,285.464844
	C827.592834,291.099609 829.714844,292.863617 835.231140,292.195923
	C837.375000,291.936432 839.544373,291.789520 841.703003,291.779724
	C843.718933,291.770569 846.116516,291.835022 846.089172,294.611786
	C846.064819,297.092438 843.806641,297.007141 841.978943,297.200806
	C840.223206,297.386871 838.346558,296.765167 835.305969,298.851746
	C842.523438,298.711121 848.199402,300.154694 854.023193,300.705322
	C856.168457,300.908142 858.297668,301.327362 860.417786,301.733826
	C862.281921,302.091248 863.555786,303.115112 863.060913,305.195648
	C862.619324,307.052277 861.064453,307.188660 859.470764,307.023438
	C852.196594,306.269287 844.918030,305.554138 837.651550,304.731903
	C835.644714,304.504791 833.655457,303.898926 832.193298,305.922852
	C830.911377,307.697327 831.335022,309.323792 832.567932,310.951813
	C833.757202,312.522247 833.051941,314.095428 832.434448,315.676636
	C831.578735,317.867676 830.786377,320.043488 832.481567,322.292358
	C833.436035,323.558655 832.729065,324.791321 831.959045,325.961639
	C829.295044,330.010406 830.037598,334.052307 831.787842,338.205170
	C836.705566,336.575317 838.955872,333.329987 839.318726,328.524506
	C839.656982,324.043304 840.198120,319.577362 840.655884,315.105316
	C840.827576,313.428101 840.881958,311.463074 843.238464,311.626434
	C845.635986,311.792603 845.281860,313.896393 845.329712,315.481537
	C845.612122,324.842255 844.232544,334.074341 843.047913,343.316650
	C840.807312,360.796204 837.911682,378.172272 835.044434,395.557800
	C834.314514,399.983856 835.914307,404.756653 836.143066,409.385040
	C836.909546,424.891113 835.989563,440.324646 833.825439,455.691040
	C833.013611,461.455505 832.143494,467.200775 832.227600,473.065338
	C832.645630,502.223114 832.681824,531.390137 833.474670,560.537048
	C833.837036,573.859375 836.993225,586.876404 841.024963,599.608215
	C841.630493,601.520386 842.435242,603.304321 844.089172,604.648254
	C845.632446,605.902222 845.776245,607.612366 844.391357,609.005310
	C842.615540,610.791443 841.074158,609.578430 839.694214,608.197449
	C838.327148,606.829346 838.034241,604.502747 835.819519,603.810852
	C833.796753,604.728455 834.303467,606.608765 834.246338,608.145142
	C833.725769,622.153809 835.088135,636.110962 835.503784,650.094971
	C835.904297,663.573181 836.608521,677.042542 837.216919,690.514099
	C837.394470,694.443604 836.417847,698.548035 839.017578,702.140564
	C839.631226,702.988586 839.530090,704.156067 838.728271,704.915100
	C833.550232,709.816467 838.036194,714.068176 839.781921,718.344971
	C840.574707,720.287109 843.004883,719.625610 844.789368,719.686218
	C846.953735,719.759766 849.122192,719.705505 851.287598,719.759216
	C853.184021,719.806274 854.604187,720.571838 854.528076,722.694946
	C854.460999,724.563477 853.076782,725.206909 851.429993,725.259399
	C848.432495,725.355042 845.432251,725.363953 842.433289,725.416748
	C837.977051,725.495239 835.510620,727.407166 836.070618,732.217590
	C836.493530,735.850159 836.886475,739.488586 837.174133,743.133728
	C837.325073,745.045898 837.103577,747.054443 834.568665,747.118774
	C832.422119,747.173340 831.657776,745.432800 831.793152,743.690674
	C832.227478,738.102417 827.138550,734.303406 827.223999,728.719177
	C827.256958,726.563904 824.514893,725.763855 822.457031,726.211487
	C819.626282,726.827271 816.368958,727.087219 815.216858,730.594055
	C815.062805,731.062927 815.074341,731.583557 814.954529,732.066711
	C814.431335,734.177246 815.577209,737.479858 812.509766,737.914734
	C808.931335,738.422119 810.052612,734.724304 809.208679,732.834900
	C808.419678,731.068481 807.168213,730.439331 805.284302,730.409058
	C783.168396,730.054565 761.053406,729.637390 738.937439,729.285767
	C736.993835,729.254822 734.927002,728.769531 733.158752,730.063721
	C732.743958,735.949585 732.407349,736.192139 726.599060,734.450745
	C711.030518,729.783203 695.222351,729.202637 679.130615,730.962158
	C657.465637,733.330872 635.719421,734.963989 614.062317,737.395569
	C595.391663,739.491821 576.794922,742.248840 558.169617,744.744324
	C550.918335,745.715881 543.632263,746.512695 536.551636,748.470276
	C534.640381,748.998657 532.671997,749.340637 532.180298,746.824829
	C531.720215,744.470703 533.712402,743.562744 535.508606,743.219604
	C543.177673,741.754639 550.880554,740.466553 558.569580,739.105469
	C560.439819,738.774414 562.528809,739.326538 564.720276,737.370361
	C559.240234,737.030212 554.353027,736.643311 549.458313,736.438049
	C531.653320,735.691223 513.843262,735.063049 496.039978,734.279846
	C478.509949,733.508667 461.140869,736.060242 443.677643,736.658447
	C431.695984,737.068970 419.723267,737.734192 407.744904,738.247742
	C370.117950,739.861023 332.466278,740.091736 294.813232,740.270996
	C291.992035,740.284424 289.162964,740.574402 286.355133,740.891602
	C283.759613,741.184814 281.458984,741.179688 279.687256,738.716431
	C278.031433,736.414246 275.270630,736.359192 272.829529,736.530029
	C259.713318,737.448059 246.639191,738.734863 233.848602,742.024475
	C231.923386,742.519592 229.378204,744.467712 228.184235,741.539490
	C226.880676,738.342590 230.089706,737.943298 232.068756,736.933838
	C232.474655,736.726746 232.768616,736.300171 233.026962,736.056885
	C233.175812,734.863342 232.466873,734.207336 231.703049,734.064331
	C224.630493,732.739746 217.470398,733.088318 210.355728,733.401245
	C207.809265,733.513245 207.201721,736.013855 207.225876,738.368774
	C207.261780,741.868103 207.314133,745.367676 207.292496,748.866760
	C207.283676,750.291931 206.818192,751.604004 205.143753,751.728027
	C203.480927,751.851135 202.720032,750.649963 202.593094,749.230042
	C202.237640,745.253784 201.799759,741.264282 201.812622,737.281372
	C201.826340,733.029785 200.036118,730.976685 195.838211,730.163269
	C192.530533,729.522278 189.265121,729.292542 185.939682,729.229248
	C184.139740,729.194946 182.395142,728.645752 182.419434,726.535461
	C182.443878,724.410034 184.263351,723.999329 186.020142,723.908386
	C187.350082,723.839539 188.685959,723.894775 190.018753,723.870483
	C193.618988,723.804932 195.695328,722.104736 195.634720,718.366882
	C195.548553,713.052063 196.371841,707.698120 195.027664,702.433044
	C194.366821,699.844482 195.644363,697.522949 196.030060,695.083313
	C196.659271,691.103577 197.472748,687.155151 194.643799,683.594238
	C193.885162,682.639404 193.395355,681.350403 194.070419,680.320496
	C198.908386,672.939453 196.469284,664.745544 196.448242,656.961609
	C196.401871,639.809448 195.632370,622.658875 195.109848,605.509094
	C195.066589,604.089478 195.472061,602.495789 194.161545,601.249512
	C192.305923,601.538452 192.473602,603.071045 192.403763,604.293152
	C191.026443,628.390686 189.577438,652.484985 188.395370,676.592346
	C188.003250,684.589417 189.074539,692.526672 191.124405,700.305786
	C191.630905,702.227966 192.294922,704.581604 189.580627,705.303650
	C186.972458,705.997498 186.733551,703.478638 186.230499,701.867188
	C184.380692,695.941528 183.847351,689.787109 183.742966,683.632507
	C183.304626,657.786682 185.817719,632.077454 187.486679,606.329529
	C187.755920,602.175598 187.937332,598.015991 188.225006,593.396118
M231.457870,694.759949
	C232.017303,698.595215 234.823990,698.709595 237.822449,698.721069
	C252.318481,698.776550 266.730957,700.125183 281.157867,701.401733
	C298.868134,702.968872 316.397675,706.249756 334.326996,705.829102
	C357.141693,705.293884 379.925903,706.496338 402.682373,708.459900
	C411.261139,709.200073 419.843109,710.951599 428.564362,709.657471
	C450.261841,706.437866 471.941040,703.058777 493.694794,700.267212
	C508.212158,698.404297 522.839111,697.107056 537.510010,698.756531
	C540.282043,699.068237 544.214783,699.230164 544.548706,702.338440
	C545.091919,707.394653 548.216003,706.635071 551.276672,706.591064
	C568.943970,706.337402 586.639832,706.557373 604.211365,708.050476
	C626.273682,709.925171 648.122375,707.926331 670.021362,706.374939
	C694.081299,704.670410 718.116455,702.616638 742.162903,700.721619
	C758.912659,699.401611 775.658569,698.026978 792.416748,696.823486
	C796.754883,696.511963 798.366394,694.450745 798.828186,690.230469
	C800.889526,671.393311 803.690002,652.626282 805.323059,633.755981
	C806.957764,614.867004 809.599670,596.033752 809.688293,577.031067
	C809.849915,542.379578 807.230469,507.796448 806.907410,473.161530
	C806.686523,449.479034 804.111084,425.972351 802.452209,402.402863
	C801.272766,385.644928 799.330566,368.931519 798.768311,352.130432
	C798.566284,346.093781 797.462158,340.258911 796.504883,334.349945
	C795.577087,328.623657 792.040039,326.730286 786.841797,326.302948
	C782.371277,325.935486 777.904297,325.385376 773.476135,324.667053
	C751.458496,321.095398 729.296143,318.945068 707.057129,317.323975
	C689.249023,316.025879 671.868530,319.468170 654.388489,321.530396
	C618.123474,325.808868 581.709045,327.265808 545.259827,327.994904
	C508.770691,328.724823 472.347046,326.621155 435.963501,324.100098
	C418.707581,322.904388 401.503174,320.980988 384.264496,319.515503
	C374.814758,318.712097 365.276031,317.122162 355.892303,317.712494
	C325.340088,319.634613 294.905670,323.076263 264.481903,326.479858
	C258.723206,327.124115 252.560287,326.921021 247.400055,329.583862
	C244.101715,331.285889 241.505676,331.753906 237.845016,331.425720
	C232.044083,330.905670 226.096237,332.057129 221.635559,336.421753
	C218.146545,339.835632 218.856720,342.411346 223.419586,343.684540
	C225.778946,344.342865 226.091980,345.557983 225.677292,347.741638
	C223.821457,357.513947 221.794266,367.269196 220.407288,377.112091
	C216.771942,402.910645 218.738342,428.973785 217.109421,454.875275
	C216.983124,456.883453 217.080048,459.223358 219.207230,460.125488
	C223.422226,461.912994 222.099365,464.421021 220.783279,467.388123
	C217.077621,475.742554 215.376358,484.469971 216.536728,493.641968
	C217.475800,501.064606 218.695404,508.469116 219.234009,515.921936
	C221.107376,541.844238 222.231140,567.805969 221.048157,593.792542
	C220.498474,605.866821 221.918335,617.717712 223.937988,629.524963
	C227.587250,650.859070 230.188660,672.302002 231.457870,694.759949
M424.238617,290.894165
	C390.254242,291.280609 356.265930,291.588318 322.445648,296.140381
	C352.065186,297.894714 381.697662,299.755341 411.304291,299.408600
	C440.786377,299.063324 470.106140,294.899292 499.499725,292.365387
	C474.729980,290.766052 449.981171,289.419586 424.238617,290.894165
M541.618164,298.796875
	C564.145081,300.786530 586.656311,303.564697 609.351501,300.161987
	C607.059814,299.164398 604.710449,298.629761 602.331726,298.401764
	C596.551941,297.847839 590.754028,297.485718 584.971558,296.957764
	C570.708252,295.655396 556.458191,295.885559 542.215820,297.238739
	C541.631775,297.294220 541.078613,297.674591 540.511047,297.903564
	C540.676086,298.152802 540.841125,298.402039 541.618164,298.796875
M332.485168,734.867920
	C357.681702,735.106689 382.816315,733.942749 407.914642,731.851501
	C395.144043,731.129456 382.403259,729.440125 369.631012,731.525757
	C366.885193,731.974121 364.006348,731.623352 361.188873,731.614624
	C351.549713,731.584900 341.941589,732.153687 332.357025,733.135559
	C331.097137,733.264587 331.108215,733.372742 332.485168,734.867920
M600.452515,314.640961
	C594.820251,313.627777 592.024963,318.673615 587.671997,320.655212
	C603.110291,320.797821 618.406311,320.332092 633.551086,317.135559
	C622.906921,314.033722 612.007446,315.715271 600.452515,314.640961
M520.506897,703.199646
	C506.734192,703.214844 493.163300,704.771545 479.807739,707.972900
	C487.235657,709.412048 537.512695,706.320740 539.939575,704.525757
	C533.676086,702.383850 527.525513,703.471558 520.506897,703.199646
M578.888977,731.618103
	C593.264587,730.388306 607.820923,735.081299 622.093262,730.293335
	C603.785828,727.337646 585.496765,727.961975 567.196899,730.656311
	C570.785706,730.954529 574.374512,731.252747 578.888977,731.618103
M807.586304,394.693451
	C807.256042,394.983398 806.622070,395.293243 806.639587,395.560425
	C807.203064,404.165131 807.757812,412.771820 808.491760,421.363037
	C808.700256,423.804230 810.156067,425.207397 812.665344,424.766815
	C814.039368,423.037933 813.735657,421.304382 813.666199,419.684967
	C813.299438,411.137604 809.276123,403.432251 807.586304,394.693451
M808.683228,681.533752
	C808.630554,676.607239 808.859680,671.645996 807.099609,666.898254
	C805.546204,674.965576 804.400940,683.005249 803.350708,691.057251
	C803.128418,692.761292 803.274902,694.610901 805.618958,694.716187
	C807.712219,694.810181 808.554260,693.387329 808.602051,691.494202
	C808.677673,688.498779 808.659729,685.501038 808.683228,681.533752
M723.636841,710.313416
	C726.234741,709.609009 728.832703,708.904663 731.430603,708.200317
	C723.590759,707.065063 715.975525,707.129456 708.597534,709.833191
	C713.325134,711.167297 718.049072,711.147278 723.636841,710.313416
M822.208130,714.202332
	C821.793213,715.499939 820.220154,716.582764 821.511597,718.306458
	C825.397400,719.440247 828.010132,718.181152 828.428345,713.980591
	C828.651001,711.744263 829.876831,708.251221 826.672302,707.635498
	C822.294983,706.794312 824.002380,711.584045 822.208130,714.202332
M455.686127,318.617981
	C449.202515,318.617981 442.718903,318.617981 436.235291,318.617981
	C450.170319,318.444855 463.969330,321.425415 477.950714,320.481293
	C470.950867,318.146332 463.762024,318.283081 455.686127,318.617981
M259.151215,704.752808
	C258.228638,705.333679 258.070496,706.346680 259.075104,706.560547
	C265.896057,708.012878 272.744110,710.145569 281.064789,706.749268
	C273.186005,704.717834 266.378601,705.471680 259.151215,704.752808
M211.952118,720.290894
	C211.859375,718.160583 212.168655,715.747803 209.123947,715.382568
	C207.569366,715.196167 206.498383,716.045349 206.441833,717.609192
	C206.367722,719.658630 205.435089,722.195862 207.892761,723.396179
	C209.913040,724.382874 211.366104,723.283386 211.952118,720.290894
M516.779846,322.699890
	C521.721924,322.699890 526.664062,322.699890 531.606140,322.699890
	C522.911499,320.779663 514.204102,321.177948 505.490326,321.709290
	C508.942810,322.024963 512.395325,322.340607 516.779846,322.699890
M320.206787,711.046448
	C316.158875,709.996033 312.275940,710.413513 307.556763,712.270935
	C313.535065,714.111511 318.434387,713.950134 323.299744,711.590698
	C322.503784,711.446533 321.707855,711.302307 320.206787,711.046448
M195.497940,582.690063
	C196.034561,578.208923 196.452026,573.728699 195.376556,569.245850
	C194.773026,573.667297 194.489548,578.099060 194.284302,582.534424
	C194.270035,582.842896 193.737839,584.822388 195.497940,582.690063
M545.277832,315.911865
	C550.039917,315.911865 554.802002,315.911865 559.564087,315.911865
	C559.552917,315.714630 559.541748,315.517365 559.530579,315.320129
	C553.870728,315.320129 548.210876,315.320129 542.551025,315.320129
	C542.555298,315.471893 542.559631,315.623627 542.563904,315.775391
	C543.220886,315.815094 543.877808,315.854767 545.277832,315.911865
M828.713806,686.442322
	C828.393372,685.016541 827.501770,683.995972 826.764893,685.865662
	C826.041504,687.701233 826.036743,689.945984 827.658752,691.817444
	C829.268921,690.340881 828.564575,688.616089 828.713806,686.442322
z"/>
<path fill="#6366f1" opacity="1.000000" stroke="none"
	d="
M502.704285,426.663513
	C488.725067,452.433960 470.851685,475.048065 453.193329,497.821411
	C447.228760,505.513702 447.295288,506.859344 453.368683,514.806763
	C458.418457,521.414673 462.096497,529.244019 468.565277,534.561340
	C486.578857,549.368530 495.569305,571.620300 512.585205,587.191772
	C513.713501,588.224243 514.585510,589.637329 514.018311,591.222351
	C512.294373,596.039185 514.996033,599.088928 518.185059,601.895630
	C519.209473,602.797241 520.485535,603.422485 519.995178,605.049622
	C519.542297,606.552551 518.212158,606.957275 516.849609,607.067505
	C512.500977,607.419373 508.194092,610.244568 503.742584,606.723877
	C502.638214,605.850464 499.756378,605.953003 498.470367,606.795593
	C492.099518,610.969666 485.309021,609.171326 478.620239,608.688538
	C476.309326,608.521729 474.246216,608.569031 472.798706,610.577454
	C470.421722,613.875488 468.373840,612.632874 466.459137,610.167786
	C464.212585,607.275574 462.596558,603.534790 459.741974,601.550049
	C454.197083,597.694641 452.766998,591.530273 449.447052,586.421570
	C440.916473,573.294556 432.028748,560.397888 423.178162,547.481567
	C419.975983,542.808350 416.859833,543.032227 413.486572,547.924011
	C404.682220,560.691833 396.996643,574.141785 389.313324,587.593689
	C387.579224,590.629761 385.759644,593.617493 383.953033,596.611511
	C383.176758,597.898010 382.398682,599.599060 380.927887,599.788940
	C374.930359,600.562805 372.714935,605.472656 369.693420,609.546387
	C366.612701,613.699890 365.945068,613.720032 363.359711,609.457886
	C362.181976,607.516296 360.531952,606.585205 358.385223,606.803589
	C349.271118,607.730530 340.039124,606.342041 330.993195,608.088135
	C327.732941,608.717407 327.024994,605.469971 324.839081,604.742126
	C323.076385,605.023376 322.423553,606.539429 321.340546,607.518860
	C320.346039,608.418152 319.339508,609.581543 317.936981,608.360962
	C316.700165,607.284546 317.160583,605.933289 317.810394,604.701416
	C319.658112,601.198792 323.262817,598.250610 320.143738,593.457031
	C319.142029,591.917603 321.423859,590.919067 322.927002,590.963745
	C326.274292,591.063110 327.871887,589.012573 329.598785,586.588013
	C347.185150,561.896423 365.281006,537.565735 381.858459,512.162598
	C386.997711,504.287231 385.822205,497.508636 377.751831,492.633453
	C375.604401,491.336212 374.269897,489.673401 373.051880,487.683105
	C365.143402,474.759949 357.677185,461.534637 349.157959,449.026825
	C342.408173,439.116852 335.502960,429.362244 330.205414,418.584991
	C328.649750,415.420227 326.054413,415.169861 323.100769,415.195251
	C321.502441,415.208984 319.534210,415.664551 318.715637,413.694946
	C317.943604,411.837219 319.679260,411.168274 320.759155,410.181122
	C322.567657,408.528046 321.996063,406.545135 321.247925,404.637177
	C320.682007,403.193909 320.039093,401.678680 321.518829,400.539032
	C323.175446,399.263000 324.291626,400.706421 325.314850,401.750580
	C328.689362,405.194092 333.237701,403.885040 337.181030,404.372772
	C344.927063,405.330872 352.792023,405.325104 360.607330,405.726685
	C363.700775,405.885590 366.060730,405.377289 366.834137,401.600555
	C367.447601,398.605164 369.674164,398.209045 371.380310,400.777496
	C373.541534,404.031097 375.825897,406.342224 380.148773,406.216370
	C382.470306,406.148743 384.049377,407.756256 382.368866,410.240509
	C380.944397,412.346283 381.707825,413.909515 382.872711,415.688995
	C392.908905,431.020203 403.223236,446.161499 414.046417,460.946991
	C417.668762,465.895508 420.101318,465.940521 423.737030,460.978088
	C432.497101,449.021484 441.975311,437.429352 449.184021,424.579559
	C451.959503,419.632141 455.820953,414.713440 457.193420,408.616272
	C458.110260,404.543304 462.618683,402.668396 466.289764,400.759735
	C466.761017,400.514679 467.820190,400.620758 468.139435,400.979858
	C472.945374,406.385834 476.883331,403.446655 480.823395,399.802734
	C481.270203,399.389496 482.011292,399.294464 483.003082,398.896576
	C484.889282,403.733978 488.951752,403.575256 493.229309,403.766083
	C499.393036,404.041077 505.475281,402.071747 511.644043,403.342194
	C512.212708,403.459320 512.953796,403.150696 513.508118,402.845825
	C514.897400,402.081879 516.282471,400.231842 517.852966,401.964600
	C519.651550,403.948944 517.192261,405.486877 516.814026,407.257233
	C515.661438,412.652405 513.131714,416.443298 508.016113,419.106384
	C505.686127,420.319275 504.575470,423.874359 502.704285,426.663513
z"/>
<path fill="#6366f1" opacity="1.000000" stroke="none"
	d="
M588.835632,585.900940
	C583.909302,588.754700 579.345642,591.512390 574.662964,594.050476
	C571.564697,595.729797 568.370117,596.575745 564.612183,595.832458
	C559.731506,594.867249 556.098938,597.883484 552.859741,601.081726
	C551.506531,602.417908 552.241577,605.796631 549.870605,605.797180
	C546.998352,605.797852 544.104431,604.654480 541.265747,603.845154
	C540.356934,603.586060 539.659180,602.600647 538.750305,602.324646
	C537.097107,601.822510 534.654236,602.617310 534.175842,600.233215
	C533.679382,597.759216 536.168274,597.021240 537.688965,595.895935
	C543.004700,591.962280 543.013000,591.287781 537.100220,585.796143
	C543.135437,580.363586 540.991577,572.845093 541.383423,566.203857
	C542.472046,547.754700 543.614319,529.247681 542.621887,510.763947
	C541.542236,490.656250 539.906250,470.575623 538.280945,450.501953
	C537.863098,445.340881 537.794312,440.191498 537.593811,435.034882
	C537.445496,431.221252 537.742065,428.026001 542.031006,426.030701
	C545.265503,424.526031 544.752808,417.344025 541.695984,414.611328
	C540.380676,413.435486 538.387390,412.865997 538.057617,410.008789
	C541.819763,409.235687 544.173950,406.943848 546.060120,403.190277
	C546.728760,401.859711 552.831238,403.247772 556.450012,403.448822
	C556.620483,403.458313 556.904480,404.000885 556.895630,404.287720
	C556.680542,411.211487 562.460327,413.391876 566.866028,416.241821
	C581.546570,425.738220 596.105042,435.450775 611.457275,443.867188
	C614.652649,445.618958 617.809937,447.815399 621.578064,444.941376
	C622.774536,444.028809 624.141052,444.372040 625.220459,445.413849
	C641.101135,460.741882 661.015625,469.532593 680.233948,479.478882
	C689.367249,484.205688 698.237427,489.444885 707.416321,494.076477
	C709.972046,495.366089 713.193298,495.383942 716.130493,495.851440
	C717.685974,496.099060 719.642883,495.305695 720.233276,497.623230
	C720.700928,499.459015 719.435669,500.401917 718.105225,501.161865
	C715.893188,502.425385 715.285950,504.016296 716.077881,506.566650
	C716.813293,508.935211 715.825989,510.185974 712.948059,510.086212
	C708.947632,509.947571 704.372925,510.689484 701.671753,513.070679
	C692.858704,520.839722 681.115234,522.829468 671.762634,529.505493
	C652.516968,543.243469 632.931030,556.507080 613.403320,569.846252
	C605.427307,575.294617 597.239319,580.432434 588.835632,585.900940
z"/>
<path fill="#6366f1" opacity="1.000000" stroke="none"
	d="
M673.055054,648.377991
	C677.123108,640.208801 684.434814,639.255981 691.873535,639.171387
	C707.867798,638.989380 711.923828,647.990662 709.593994,665.362915
	C707.844482,678.407593 692.128784,683.914734 680.485779,677.367676
	C668.765625,670.777161 668.812195,663.092041 673.055054,648.377991
z"/>
<path fill="#6366f1" opacity="1.000000" stroke="none"
	d="
M652.718079,649.476135
	C658.316467,662.292725 655.126038,671.973694 643.628296,677.932129
	C631.503296,684.215637 616.848206,676.403503 615.660339,663.023315
	C614.224548,646.850403 627.129944,635.781860 642.806885,639.579285
	C648.091980,640.859436 651.160828,644.041199 652.718079,649.476135
z"/>
<path fill="#6366f1" opacity="1.000000" stroke="none"
	d="
M740.740051,678.528076
	C733.711853,677.696655 729.860535,673.192566 726.411926,668.153564
	C726.134949,667.748840 725.933777,667.280396 725.762024,666.817505
	C724.823730,664.289551 729.312256,648.455933 731.378967,646.749512
	C732.910217,645.485168 734.334351,644.092041 735.848816,642.806396
	C740.201172,639.111572 745.041443,638.177307 750.160095,640.880676
	C753.629578,642.713196 757.602539,643.674500 760.231934,647.052368
	C766.108398,654.601501 766.937622,661.641541 762.555420,669.161804
	C758.444519,676.216492 750.198730,679.857483 740.740051,678.528076
z"/>
</svg>
